<?xml version="1.0" encoding="UTF-8" standalone="no"?>
<svg id="svg2" xmlns:rdf="http://www.w3.org/1999/02/22-rdf-syntax-ns#" xmlns="http://www.w3.org/2000/svg" height="1228pt" width="1842pt" version="1.1" xmlns:cc="http://creativecommons.org/ns#" xmlns:dc="http://purl.org/dc/elements/1.1/" viewBox="0 0 1842 1228">
<rect id="rect4879" height="1228" width="1842" y="0" x="0" fill="#500000"/>
<path id="path4" d="m0 0v70.463c2.9125-22.863 0.425-47.088 1.25-70.463h-1.25zm13.75 0c0.088 11.65-0.175 23.313 0.062 34.963 17.05 0.075 34.101 0.099 51.151-0.014 0.125-11.65-0.001-23.299 0.037-34.949h-51.25zm68.75 0c0.05 11.238-0.124 22.475 0.051 33.713 31.209 0.062 62.439 0.074 93.649-0.014 0.15-11.225 0.01-22.461 0.05-33.699h-93.75zm106.25 0c0.05 12.9-0.11 25.799 0.05 38.699 24.55 0.038 49.11 0.177 73.66-0.023 0.14-12.9-0.01-25.788 0.04-38.676h-73.75zm93.75 0c0.05 21.238-0.1 42.474 0.05 63.699 17.05 0.088 34.11 0.1 51.16 0 0.12-21.225-0.01-42.461 0.04-63.699h-51.25zm183.75 0c0.11 9.9875-0.24 19.975 0.07 29.963 17.04 0.075 34.09 0.099 51.14-0.014 0.12-9.975 0.02-19.962 0.04-29.949h-51.25zm108.75 0c0.04 57.075-0.07 114.14 0.05 171.21 28.3 0.03 56.6 0.14 84.91-0.03 0.1-57.07 0-114.12 0.04-171.18h-85zm102.5 0c0.04 12.9-0.11 25.799 0.05 38.699 45.8 0.088 91.6 0.088 137.4 0 0.15-12.9 0-25.799 0.05-38.699h-137.5zm162.5 0c0.11 12.062-0.23 24.15 0.07 36.213 32.45 0.037 64.93 0.125 97.39-0.037 0.12-12.063 0-24.114 0.04-36.176h-97.5zm109.88 0c0.06 0.925 0.19 2.7742 0.26 3.6992 76.56 0.05 153.16 0.1379 229.76-0.0371 0-0.9125 0.2-2.7496 0.2-3.6621h-230.22zm247.62 0c0.1 18.325-0.2 36.638 0.1 54.963 54.9 0.05 109.9 0.099 164.9-0.025 0.1-18.313-0.1-36.626 0-54.938h-165zm181.3 0c0 38.738-0.2 77.475 0 116.21 17 0.08 34.1 0.1 51.2-0.01 0.1-38.726 0-77.462 0-116.2h-51.2zm63.7 0c0 35.812-0.1 71.637 0.1 107.45 24.5 0.04 49.1 0.18 73.6-0.02 0.1-35.817 0-71.618 0-107.43h-73.7zm245 0c0.1 14.562-0.3 29.15 0.1 43.713 38.7 0.037 77.4 0.125 116.1-0.037 0.1-14.563 0-29.114 0.1-43.676h-116.3zm127.5 0c0 19.15-0.1 38.299 0.1 57.449 17 0.088 34.1 0.1 51.1 0 0.1-19.15 0-38.299 0-57.449h-51.2zm153.8 0c0 38.738-0.2 77.475 0 116.21 31.2 0.07 62.4 0.08 93.6-0.01 0.2-38.726 0-77.462 0.1-116.2h-93.7zm120 0c0 16.238-0.3 32.475 0 48.713 48.7 0.05 97.5 0.099 146.2-0.025 0.1-16.226-0.1-32.463 0-48.688h-146.2zm166.2 0c0 11.238-0.1 22.475 0.1 33.713 15.7 0.125 31.6-0.013 47.4 0.037v-33.75h-47.5zm-344.4 2.4863c-12.3 0.011-24.5 0.0391-36.8 0.0391-0.1 31.638-0.1 63.274 0 94.924 24.5 0.138 49.1 0.026 73.7 0.026v-94.924c-12.3-0.069-24.6-0.0756-36.9-0.0647zm-275.6 5.002c-12.9 0.0047-25.8 0.0246-38.7 0.0371-0.1 65.813 0 131.62 0 197.43 25.8 0.09 51.6 0.04 77.4 0.01 0.1-65.81 0-131.62 0-197.43-12.9-0.0466-25.8-0.0564-38.7-0.0517zm-80 1.25c-10.4 0-20.8 0.0121-31.2 0.0371-0.2 12.063 0 24.137 0 36.2 20.8 0.05 41.6 0.05 62.4 0 0.2-12.063 0-24.137 0-36.2-10.4-0.0246-20.8-0.0367-31.2-0.0367zm-480.6 12.504c-36.5 0.002-72.9 0.015-109.35 0.033-0.11 53.725-0.05 107.46-0.02 161.2 72.87 0.04 145.77 0.03 218.67-0.01 0.1-53.72 0-107.46 0-161.2-36.4-0.02-72.9-0.029-109.3-0.028zm-681.28 7.496c-15.61 0-31.23 0.012-46.84 0.037-0.05 20.813-0.05 41.637 0 62.45 31.23 0.05 62.46 0.05 93.69 0 0.05-20.813 0.05-41.637 0-62.45-15.61-0.025-31.23-0.037-46.85-0.037zm427.52 21.25c-24.37 0.005-48.73 0.025-73.09 0.037-0.14 24.563-0.04 49.125-0.02 73.685 48.72 0.08 97.44 0.04 146.17 0.01 0.14-24.558 0.02-49.12 0.02-73.683-24.36-0.044-48.72-0.053-73.08-0.049zm-313.75 1.254c-16.87 0.002-33.73 0.015-50.59 0.033-0.11 40.813-0.05 81.625-0.02 122.44 33.72 0.05 67.44 0.04 101.17 0 0.11-40.81 0.04-81.62 0.02-122.44-16.86-0.03-33.72-0.039-50.58-0.038zm-353.77 1.25c-36.44 0.002-72.895 0.015-109.34 0.033-0.055 29.563-0.042 59.125-0.005 88.695 72.905 0.05 145.8 0.04 218.7 0 0.04-29.56 0.03-59.132-0.01-88.695-36.45-0.025-72.89-0.034-109.35-0.033zm2114.7 6.24c-3.8 0.008-7.7 0.028-11.5 0.069-0.1 47.879-0.1 95.759 0 143.65 15.4 0.15 30.8 0 46.2 0.05v-143.75c-11.6 0.047-23.1-0.04-34.7-0.018zm-1563.4 1.25c-8.53 0.002-17.06 0.018-25.59 0.043-0.07 20.813-0.05 41.625 0 62.445 17.06 0.07 34.12 0.05 51.19 0 0.05-20.81 0.04-41.62 0-62.445-8.53-0.031-17.07-0.044-25.6-0.043zm226.25 1.25c-8.53 0.002-17.06 0.018-25.59 0.043-0.07 20.813-0.05 41.625 0 62.445 17.06 0.07 34.12 0.05 51.19 0 0.05-20.81 0.04-41.62 0-62.445-8.53-0.031-17.07-0.044-25.6-0.043zm623.78 2.498c-9 0.01-17.9 0.039-26.9 0.045v44.925c17.9 0.14 35.8 0.02 53.7 0.02 0.1-14.97 0-29.944 0-44.919-8.9-0.069-17.9-0.08-26.8-0.071zm640.6 0.004c-10.8 0.007-21.6 0.029-32.4 0.041-0.2 24.563-0.1 49.125-0.1 73.685 21.7 0.1 43.3 0.04 64.9 0.01 0.2-24.56 0.1-49.12 0.1-73.683-10.9-0.05-21.7-0.059-32.5-0.053zm-82.5 0.004c-11.7 0-23.3 0.012-35 0.037v62.445c23.3 0.05 46.6 0.04 70 0v-62.445c-11.7-0.025-23.3-0.037-35-0.037zm-874.4 5c-13.9 0.005-27.9 0.025-41.8 0.037-0.1 28.725 0 57.455 0 86.185 27.9 0.09 55.7 0.04 83.6 0.01 0.2-28.72 0.1-57.445 0.1-86.183-14-0.044-27.9-0.053-41.9-0.049zm531.9 0.006c-27.5 0.003-55 0.019-82.4 0.031-0.3 9.563-0.1 19.125-0.1 28.688 55 0.075 110 0.037 164.9 0.012 0.2-9.563 0-19.125 0.1-28.688-27.5-0.037-55-0.046-82.5-0.043zm-443.1 1.236c-12.3 0.01-24.6 0.039-36.9 0.045v143.68c24.6 0.14 49.1 0.04 73.7 0.02 0.1-47.88 0.1-95.78 0-143.67-12.3-0.068-24.5-0.079-36.8-0.07zm-1020 10.002c-8.54 0.002-17.07 0.018-25.6 0.043-0.05 20.815-0.05 41.625 0 62.445 17.06 0.07 34.12 0.05 51.19 0 0.05-20.81 0.04-41.62 0-62.445-8.53-0.031-17.06-0.044-25.59-0.043zm-293.17 24.998c-4.572 0-9.1442 0.03-13.713 0.02v116.25c9.15-0.04 18.313 0.11 27.463-0.05 0.037-38.71 0.125-77.44-0.037-116.16-4.569-0.07-9.141-0.07-13.713-0.06zm376.92 8.76c-15.61 0-31.23 0.02-46.84 0.04-0.09 46.65-0.05 93.29-0.01 139.94 31.22 0.05 62.45 0.04 93.68 0 0.08-46.65 0.04-93.29 0.01-139.94-15.61-0.03-31.22-0.04-46.84-0.04zm1420 11.25c-36.4 0-72.9 0.02-109.3 0.04-0.1 29.56-0.1 59.12 0 88.69 72.9 0.05 145.8 0.04 218.7 0v-88.69c-36.5-0.03-72.9-0.04-109.4-0.04zm-375 5c-13.5 0-27 0.01-40.6 0.04-0.1 23.72 0 47.46 0 71.19 27.1 0.05 54.1 0.04 81.2 0 0.1-23.73 0-47.46 0-71.19-13.5-0.03-27-0.04-40.6-0.04zm-566.22 2.5c-27.7 0-55.4 0.02-83.1 0.04-0.07 23.3-0.05 46.61 0 69.92 55.4 0.1 110.79 0.05 166.19 0.02 0.05-23.31 0.04-46.61 0-69.92-27.7-0.06-55.39-0.07-83.09-0.06zm670.62 1.25c-15 0-30 0.02-45 0.04v63.68c30 0.09 60 0.04 90 0.01v-63.68c-15-0.05-30-0.06-45-0.05zm428.1 3.74c-12.3 0.01-24.5 0.04-36.8 0.05-0.1 10.38-0.1 20.77 0 31.17 24.5 0.14 49.1 0.04 73.7 0.02v-31.17c-12.3-0.07-24.6-0.08-36.9-0.07zm-1243.1 2.51c-16.24 0-32.48 0.02-48.72 0.04-0.05 20.81-0.05 41.61 0 62.42 32.47 0.11 64.96 0.05 97.44 0.02 0.05-20.81 0.04-41.61 0-62.42-16.24-0.06-32.48-0.07-48.72-0.06zm1312.5 0c-8.3 0-16.6 0.01-24.9 0.04-0.2 24.56-0.1 49.12-0.1 73.69 16.7 0.05 33.3 0.05 49.9 0 0.2-24.56 0.1-49.13 0.1-73.69-8.4-0.03-16.7-0.04-25-0.04zm96.9 10c-20.2 0-40.4 0.02-60.6 0.04-0.1 22.47 0 44.95 0 67.43 40.4 0.09 80.7 0.04 121.1 0.01 0.2-22.47 0.1-44.96 0.1-67.43-20.2-0.05-40.4-0.06-60.6-0.05zm74.4 5.04c-0.1 20.81-0.1 41.63 0 62.44h18.7v-62.44h-18.7zm-1940 7.46c-20.4 0-40.8 0.02-61.21 0.04-0.14 24.55-0.04 49.11-0.02 73.67 40.8 0.11 81.61 0.05 122.42 0.02 0.14-24.56 0.02-49.11 0.02-73.67-20.4-0.06-40.81-0.07-61.21-0.06zm-143.76 1.25c-20.41 0-40.818 0.02-61.225 0.04-0.05 43.72-0.037 87.44 0 131.17 40.815 0.11 81.635 0.05 122.44 0.02 0.05-43.72 0.04-87.44 0-131.17-20.4-0.06-40.81-0.07-61.22-0.06zm1111.2 2.5c-14.1 0-28.3 0.02-42.4 0.04-0.1 20.81-0.1 41.61 0 62.42 28.3 0.11 56.6 0.05 84.9 0.02 0.1-20.81 0.1-41.61 0-62.42-14.1-0.06-28.3-0.07-42.5-0.06zm731.9 17.49c-12.2 0.01-24.5 0.04-36.8 0.05-0.2 9.55 0 19.11 0 28.67 24.5 0.14 49.1 0.02 73.6 0.02 0.2-9.56 0-19.12 0.1-28.67-12.3-0.07-24.6-0.08-36.9-0.07zm-1410.6 1.26c-34.16 0-68.32 0.02-102.47 0.04-0.05 22.88-0.05 45.77 0 68.67 68.31 0.11 136.62 0.05 204.94 0.02 0.05-22.9 0.04-45.78 0-68.67-34.15-0.06-68.31-0.07-102.47-0.06zm553.8 11.25c-14.2 0-28.3 0.02-42.5 0.04-0.1 67.88 0 135.78 0 203.67 28.3 0.11 56.6 0.04 84.9 0.02 0.1-67.88 0-135.78 0-203.67-14.1-0.06-28.3-0.07-42.4-0.06zm-109.4 9.99c-12.3 0.01-24.57 0.04-36.85 0.05-0.11 59.55-0.05 119.11-0.02 178.67 24.55 0.14 49.07 0.02 73.67 0.02 0.1-59.56 0-119.11 0-178.67-12.3-0.07-24.5-0.08-36.8-0.07zm-74.4 6.25c-8.33 0-16.64 0.02-24.96 0.05-0.13 8.72-0.08 17.46-0.01 26.19 16.63 0.05 33.28 0.05 49.93 0 0.09-8.73 0.05-17.46 0.01-26.19-8.33-0.04-16.65-0.05-24.97-0.05zm-148.11 0.01c-34.37 0-68.73 0.02-103.09 0.04-0.14 19.97-0.05 39.96-0.02 59.94 68.72 0.05 137.44 0.04 206.17 0 0.12-19.98 0.04-39.96 0.02-59.94-34.36-0.03-68.72-0.04-103.08-0.04zm701.21 5c-28.5 0-57 0.02-85.6 0.04v62.43c57.1 0.08 114.1 0.05 171.2 0.01 0.1-20.81 0.1-41.62 0-62.43-28.5-0.04-57-0.05-85.6-0.05zm743.8 8.75c-24 0-47.9 0.02-71.8 0.06-0.1 57.05-0.2 114.11 0 171.16 49.9 0.1 99.9 0 149.9 0.05v-1.22c-2.1-0.03-4.2 0-6.2-0.13-0.2-56.62 0-113.25-0.1-169.87-23.9-0.03-47.9-0.05-71.8-0.05zm-524.4 3.73c-7.1 0.02-14.2 0.06-21.2 0.06-0.1 18.72-0.1 37.44 0 56.17 14.1 0.17 28.2 0.01 42.4 0.02 0.1-18.72 0.1-37.44 0-56.17-7.1-0.09-14.1-0.09-21.2-0.08zm62.5 0c-7.1 0.02-14.2 0.06-21.2 0.06-0.1 18.72-0.1 37.44 0 56.17 14.1 0.17 28.2 0.01 42.4 0.02 0.1-18.72 0.1-37.44 0-56.17-7.1-0.09-14.1-0.09-21.2-0.08zm165 2.52c-35.4 0-70.8 0.02-106.2 0.04-0.1 29.56-0.1 59.12 0 88.69 70.8 0.05 141.6 0.04 212.4 0 0.1-29.56 0.1-59.13 0-88.69-35.4-0.03-70.8-0.04-106.2-0.04zm168.7 5c-12.5 0-24.9 0.02-37.4 0.04-0.1 56.65-0.1 113.29 0 169.94 25 0.05 49.9 0.04 74.9 0 0.1-56.65 0.1-113.29 0-169.94-12.5-0.03-25-0.04-37.5-0.04zm-460.6 1.24c-6.8 0.01-13.7 0.05-20.5 0.05-0.2 107.88-0.1 215.78-0.1 323.67 13.7 0.16 27.4 0.02 41.2 0.02 0.1-107.88 0-215.78 0-323.67-6.8-0.08-13.7-0.09-20.6-0.07zm-330.6 3.76c-20.4 0-40.8 0.02-61.2 0.04-0.1 24.55 0 49.11 0 73.67 40.8 0.11 81.6 0.05 122.4 0.02 0.1-24.56 0-49.11 0-73.67-20.4-0.06-40.8-0.07-61.2-0.06zm-376.88 3.75c-8.53 0-17.06 0.02-25.59 0.04-0.05 44.15-0.04 88.29 0 132.44 17.05 0.07 34.12 0.04 51.19 0 0.05-44.15 0.04-88.29 0-132.44-8.53-0.04-17.07-0.04-25.6-0.04zm-914.41 4.98c-4.572 0.01-9.1442 0.04-13.713 0.03v272.5c9.15-0.04 18.313 0.11 27.463-0.05 0.037-90.8 0.113-181.61-0.037-272.41-4.569-0.07-9.141-0.08-13.713-0.07zm1181.9 2.51c-8.5 0-17 0.02-25.6 0.05v62.44c17.1 0.07 34.1 0.05 51.2 0 0.1-20.81 0.1-41.63 0-62.44-8.5-0.04-17-0.05-25.6-0.05zm-585.6 11.26c-18.32 0-36.65 0.02-54.97 0.04-0.05 20.81-0.05 41.61 0 62.42 36.65 0.11 73.29 0.05 109.94 0.02 0.05-20.81 0.04-41.62 0-62.42-18.32-0.06-36.65-0.07-54.97-0.06zm-268.75 5c-39.57 0-79.15 0.01-118.72 0.04-0.05 20.81-0.05 41.62 0 62.44 79.15 0.04 158.29 0.04 237.44 0 0.05-20.82 0.05-41.63 0-62.44-39.57-0.03-79.15-0.04-118.72-0.04zm160.63 4.99c-8.53 0-17.06 0.02-25.59 0.05-0.09 73.72-0.04 147.46-0.01 221.19 17.05 0.07 34.11 0.04 51.18 0 0.08-73.72 0.04-147.46 0.01-221.19-8.53-0.04-17.06-0.05-25.59-0.05zm332.5 12.51c-16.03 0-32.05 0.02-48.08 0.04-0.21 7.05-0.06 14.11-0.02 21.18 32.05 0.09 64.11 0.04 96.17 0.01 0.19-7.06 0.01-14.12 0.02-21.18-16.03-0.05-32.06-0.06-48.09-0.05zm-112.5 0c-14.78 0-29.56 0.02-44.34 0.04-0.09 29.97-0.04 59.96-0.01 89.94 29.55 0.05 59.11 0.04 88.68 0 0.09-29.98 0.04-59.96 0.01-89.94-14.78-0.03-29.56-0.04-44.34-0.04zm821.82 10c-17.4 0-34.9 0.03-52.4 0.04-0.1 47.88-0.1 95.77 0 143.67 35 0.11 69.9 0.04 104.9 0.02 0.1-47.88 0.1-95.78 0-143.67-17.5-0.06-35-0.07-52.5-0.06zm197.6 0c-20.4 0-40.8 0.02-61.2 0.04-0.2 24.55-0.1 49.11-0.1 73.67 40.8 0.11 81.6 0.05 122.4 0.02 0.2-24.56 0.1-49.12 0.1-73.67-20.4-0.06-40.8-0.07-61.2-0.06zm-311.3 0c-16.6 0-33.3 0.01-49.9 0.04-0.2 40.81-0.1 81.62-0.1 122.44 33.3 0.05 66.6 0.04 99.9 0 0.1-40.81 0.1-81.63 0.1-122.44-16.7-0.03-33.3-0.04-50-0.04zm-1262.5 17.49c-14.15 0.01-28.3 0.03-42.46 0.05-0.1 67.88-0.05 135.78-0.02 203.67 28.3 0.11 56.61 0.04 84.92 0.02 0.1-67.88 0.05-135.78 0.02-203.67-14.15-0.06-28.31-0.08-42.46-0.07zm-88.135 0c-8.534 0-17.068 0.02-25.6 0.05-0.05 20.81-0.05 41.62 0 62.44 17.063 0.07 34.125 0.04 51.195 0 0.05-20.82 0.05-41.63 0-62.44-8.527-0.04-17.061-0.05-25.595-0.05zm739.38 1.26c-13.74 0-27.48 0.01-41.22 0.04-0.05 37.48-0.04 74.96 0 112.44 27.47 0.05 54.96 0.04 82.44 0 0.05-37.48 0.04-74.96 0-112.44-13.74-0.03-27.48-0.04-41.22-0.04zm488.75 16.24c-21.2 0.01-42.5 0.03-63.7 0.05-0.1 20.81-0.1 41.62 0 62.43 42.5 0.08 84.9 0.04 127.4 0.01 0.1-20.81 0.1-41.62 0-62.43-21.2-0.05-42.5-0.06-63.7-0.06zm-111.9 1.25c-8.5 0-17 0.02-25.6 0.05v62.44c17.1 0.07 34.1 0.04 51.2 0 0.1-20.82 0.1-41.63 0-62.44-8.5-0.04-17-0.05-25.6-0.05zm762.5 0.01c-21.4 0-42.9 0.02-64.3 0.04-0.1 47.88-0.1 95.78 0 143.67 42.9 0.1 85.8 0.05 128.7 0.02v-143.67c-21.5-0.06-42.9-0.07-64.4-0.06zm-110 1.24c-8.5 0-17 0.02-25.6 0.05v62.44c17.1 0.07 34.1 0.04 51.2 0 0.1-20.82 0.1-41.63 0-62.44-8.5-0.04-17.1-0.05-25.6-0.05zm-1263.7 1.26c-9.37 0-18.73 0.01-28.09 0.04-0.05 54.15-0.05 108.29 0 162.44 18.72 0.05 37.46 0.05 56.19 0 0.04-54.15 0.04-108.29 0-162.44-9.36-0.03-18.73-0.04-28.1-0.04zm-232.49 8.75c-36.46 0-72.9 0.01-109.35 0.04-0.05 58.31-0.05 116.63 0 174.94 72.9 0.04 145.79 0.04 218.69 0 0.04-58.31 0.04-116.63 0-174.94-36.45-0.03-72.9-0.04-109.34-0.04zm-273.76 38.74c-8.534 0-17.068 0.02-25.6 0.05-0.05 20.81-0.05 41.62 0 62.44 17.063 0.07 34.125 0.04 51.195 0 0.05-20.82 0.05-41.63 0-62.44-8.527-0.04-17.061-0.05-25.595-0.05zm624.38 5.01c-20.4 0-40.8 0.02-61.21 0.04-0.14 24.55-0.04 49.11-0.02 73.67 40.8 0.11 81.61 0.05 122.42 0.02 0.14-24.56 0.02-49.12 0.02-73.67-20.4-0.06-40.81-0.07-61.21-0.06zm1037.5 7.5c-21.2 0-42.5 0.02-63.7 0.04-0.1 29.56-0.1 59.11 0 88.68 42.5 0.09 84.9 0.04 127.4 0.01 0.1-29.56 0.1-59.12 0-88.68-21.2-0.05-42.5-0.06-63.7-0.05zm-808.12 1.25c-20.2 0-40.39 0.02-60.59 0.04-0.09 36.22-0.05 72.45-0.01 108.68 40.38 0.09 80.78 0.04 121.18 0.01 0.08-36.22 0.04-72.46 0.01-108.68-20.2-0.05-40.39-0.06-60.59-0.05zm355.62 14.99c-14.1 0.01-28.3 0.03-42.4 0.05-0.1 67.88-0.1 135.78-0.1 203.67 28.3 0.11 56.6 0.04 84.9 0.02 0.1-67.88 0.1-135.78 0.1-203.67-14.2-0.06-28.3-0.08-42.5-0.07zm-171.9 0.01c-36.4 0-72.9 0.02-109.3 0.04-0.1 29.56-0.1 59.12 0 88.69 72.9 0.05 145.8 0.04 218.7 0v-88.69c-36.5-0.03-72.9-0.04-109.4-0.04zm1160.7 2.47c-2.9 0.02-5.9 0.04-8.8 0.1 0 49.96 0 99.93 0.1 149.89 11.6 0.14 23.2 0.01 34.9 0.05v-150c-8.8 0.07-17.5-0.07-26.2-0.04zm-430.7 3.77c-8.5 0-17 0.02-25.6 0.05v62.44c17.1 0.07 34.1 0.04 51.2 0 0.1-20.82 0.1-41.63 0-62.44-8.5-0.04-17.1-0.05-25.6-0.05zm308.8 7.51c-32.3 0-64.6 0.01-96.9 0.04v68.69c64.6 0.04 129.1 0.04 193.7 0 0.1-22.9 0.1-45.79 0-68.69-32.3-0.03-64.5-0.04-96.8-0.04zm-745.7 5c-23.7 0-47.4 0.02-71.2 0.04v62.42c47.5 0.11 95 0.05 142.5 0.02v-62.42c-23.8-0.06-47.5-0.07-71.3-0.06zm-589.94 11.25c-13.74 0-27.47 0.02-41.21 0.04-0.11 45.4-0.04 90.79-0.02 136.19 27.46 0.05 54.93 0.04 82.42 0 0.11-45.4 0.04-90.79 0.02-136.19-13.73-0.04-27.47-0.04-41.21-0.04zm708.14 8.74c-12.3 0.01-24.6 0.04-36.8 0.05-0.2 16.21-0.1 32.44-0.1 48.67 24.6 0.14 49.1 0.02 73.7 0.02 0.1-16.22 0-32.44 0-48.67-12.3-0.07-24.5-0.08-36.8-0.07zm-1451.3 3.75c-8.534 0-17.068 0.02-25.6 0.05-0.05 20.81-0.05 41.62 0 62.44 17.063 0.07 34.125 0.04 51.195 0 0.05-20.82 0.05-41.63 0-62.44-8.527-0.04-17.061-0.05-25.595-0.05zm632.5 22.5c-12.28 0.01-24.56 0.04-36.84 0.05-0.05 58.72-0.04 117.44 0 176.17 24.56 0.14 49.12 0.02 73.69 0.02 0.05-58.72 0.04-117.44 0-176.17-12.28-0.07-24.56-0.08-36.85-0.07zm1488.8 32.51c-17.7 0-35.4 0.01-53.1 0.04-0.1 22.9-0.1 45.79 0 68.69 35.4 0.04 70.8 0.04 106.2 0v-68.69c-17.7-0.03-35.4-0.04-53.1-0.04zm-265 0c-36.5 0-72.9 0.02-109.4 0.04v88.69c72.9 0.05 145.8 0.04 218.7 0 0.1-29.56 0.1-59.13 0-88.69-36.4-0.03-72.9-0.04-109.3-0.04zm-195.6 2.5c-20 0-40 0.02-60 0.04-0.1 24.56 0 49.12 0 73.69 39.9 0.05 79.9 0.04 119.9 0 0.1-24.56 0-49.13 0-73.69-20-0.03-40-0.04-59.9-0.04zm-1172.5 1.25c-28.74 0-57.47 0.02-86.21 0.04-0.14 24.55-0.04 49.11-0.02 73.67 57.47 0.1 114.94 0.05 172.42 0.02 0.14-24.56 0.02-49.12 0.02-73.67-28.73-0.05-57.47-0.06-86.21-0.06zm841.24 2.5c-20.4 0-40.8 0.02-61.2 0.04-0.1 44.97 0 89.94 0 134.92 40.8 0.11 81.6 0.05 122.4 0.02 0.1-44.97 0-89.94 0-134.92-20.4-0.06-40.8-0.07-61.2-0.06zm-383.7 2.5c-20.4 0-40.84 0.02-61.25 0.04-0.14 24.55-0.04 49.11-0.02 73.67 40.77 0.11 81.57 0.05 122.37 0.02 0.2-24.56 0.1-49.12 0.1-73.67-20.4-0.06-40.8-0.07-61.2-0.06zm138.7 0c-20.4 0-40.8 0.02-61.2 0.04-0.1 24.55 0 49.11 0 73.67 40.8 0.11 81.6 0.05 122.4 0.02 0.1-24.56 0-49.12 0-73.67-20.4-0.06-40.8-0.07-61.2-0.06zm366.9 6.24c-12.3 0.01-24.6 0.04-36.8 0.05-0.2 14.13-0.1 28.27-0.1 42.42 24.6 0.14 49.1 0.02 73.7 0.02 0.2-14.13 0-28.28 0-42.42-12.3-0.07-24.5-0.08-36.8-0.07zm567.5 2.5c-8.6 0-17.1 0.02-25.6 0.05-0.1 20.81-0.1 41.62 0 62.44 17 0.07 34.1 0.04 51.2 0v-62.44c-8.6-0.04-17.1-0.05-25.6-0.05zm-1184.4 2.5c-11.66 0-23.32 0.02-34.97 0.05-0.07 20.81-0.05 41.62 0 62.44 23.31 0.05 46.62 0.04 69.94 0 0.05-20.82 0.04-41.63 0-62.44-11.66-0.04-23.32-0.05-34.97-0.05zm-486.88 12.5c-12.28 0.01-24.56 0.04-36.84 0.05-0.05 47.88-0.04 95.77 0 143.67 24.56 0.14 49.12 0.02 73.69 0.02 0.05-47.9 0.04-95.78 0-143.67-12.28-0.07-24.56-0.08-36.85-0.07zm-185 6.26c-36.44 0-72.89 0.02-109.34 0.04-0.05 29.56-0.05 59.12 0 88.69 72.9 0.05 145.79 0.04 218.69 0 0.05-29.56 0.04-59.13 0-88.69-36.45-0.03-72.89-0.04-109.35-0.04zm-159.4 2.5c-26.236-0.01-52.476 0.04-78.717 0.01v132.5c34.988-0.07 69.975 0.13 104.96-0.07 0.07-44.13 0.08-88.27-0.01-132.39-8.745-0.03-17.488-0.04-26.233-0.05zm1497.5 25c-28.7 0-57.4 0.02-86.2 0.04v143.67c57.5 0.1 115 0.05 172.5 0.02v-143.67c-28.8-0.05-57.5-0.06-86.3-0.06zm-762.45 15c-16.25 0-32.49 0.02-48.72 0.04-0.05 20.8-0.05 41.61 0 62.42 32.47 0.11 64.96 0.05 97.44 0.02 0.05-20.81 0.04-41.62 0-62.42-16.24-0.06-32.48-0.07-48.72-0.06zm1421.8 0c-17.7 0-35.4 0.02-53.1 0.04v119.94c35.4 0.05 70.8 0.04 106.2 0 0.1-39.98 0.1-79.96 0-119.94-17.7-0.03-35.4-0.04-53.1-0.04zm-1597.5 7.49c-8.53 0-17.06 0.02-25.59 0.05-0.05 29.15-0.05 58.29 0 87.44 17.06 0.05 34.12 0.04 51.19 0 0.05-29.15 0.04-58.29 0-87.44-8.53-0.04-17.07-0.05-25.6-0.05zm526.28 2.5c-12.3 0.01-24.6 0.04-36.9 0.05v31.17c24.6 0.14 49.1 0.02 73.7 0.02 0.1-10.4 0.1-20.78 0-31.17-12.3-0.07-24.5-0.08-36.8-0.07zm-205.02 6.25c-24.37 0.01-48.74 0.03-73.1 0.05-0.07 20.81-0.05 41.61 0 62.43 48.72 0.08 97.46 0.04 146.22 0.01v-62.43c-24.4-0.05-48.76-0.06-73.12-0.06zm113.72 0.01c-9.3 0-18.7 0.01-28.1 0.04v243.69c18.8 0.05 37.5 0.05 56.2 0 0.1-81.23 0.1-162.46 0-243.69-9.3-0.03-18.7-0.04-28.1-0.04zm670.6 2.5c-23.7 0-47.4 0.02-71.2 0.04-0.1 10.38-0.1 20.77 0 31.17 47.5 0.11 95 0.05 142.5 0.02v-31.17c-23.8-0.06-47.5-0.07-71.3-0.06zm-1203.7 2.5c-20.4 0-40.8 0.02-61.21 0.04-0.14 24.55-0.04 49.11-0.02 73.67 40.8 0.11 81.61 0.05 122.42 0.02 0.14-24.56 0.02-49.12 0.02-73.67-20.4-0.06-40.81-0.07-61.21-0.06zm1505.6 3.75c-36.4 0-72.9 0.02-109.3 0.04-0.1 29.56-0.1 59.12 0 88.69 72.9 0.05 145.8 0.04 218.7 0v-88.69c-36.5-0.03-72.9-0.04-109.4-0.04zm-176.9 5c-14.1 0-28.3 0.03-42.4 0.04-0.1 64.97-0.1 129.94 0 194.92 28.3 0.11 56.6 0.04 84.9 0.02 0.1-64.97 0.1-129.94 0-194.92-14.1-0.06-28.3-0.07-42.5-0.06zm-661.2 20c-26.6 0-53.3 0.02-79.9 0.04-0.2 24.55-0.1 49.11-0.1 73.67 53.3 0.1 106.6 0.05 159.9 0.02 0.2-24.56 0.1-49.12 0.1-73.67-26.7-0.06-53.3-0.07-80-0.06zm-919.38 6.25c-30.2 0-60.39 0.01-90.59 0.04-0.05 20.81-0.05 41.62 0 62.44 60.4 0.04 120.79 0.04 181.19 0 0.05-20.82 0.05-41.63 0-62.44-30.2-0.03-60.4-0.04-90.6-0.04zm-132.5 1.24c-8.53 0-17.06 0.02-25.59 0.05-0.05 60.4-0.04 120.79 0 181.19 17.06 0.05 34.12 0.04 51.19 0 0.05-60.4 0.04-120.79 0-181.19-8.53-0.04-17.06-0.05-25.6-0.05zm1273.8 11.25c-8.6 0-17.1 0.02-25.6 0.05-0.1 20.81-0.1 41.62 0 62.44 17 0.05 34.1 0.04 51.2 0v-62.44c-8.6-0.04-17.1-0.05-25.6-0.05zm-87.5 7.5c-12.3 0.01-24.6 0.04-36.9 0.05v143.67c24.6 0.12 49.1 0.02 73.7 0.02 0.1-47.9 0.1-95.78 0-143.67-12.3-0.07-24.5-0.08-36.8-0.07zm391.9 5c-14.2 0.01-28.3 0.03-42.5 0.05-0.1 67.88 0 135.78 0 203.67 28.3 0.11 56.6 0.04 84.9 0.02 0.1-67.88 0-135.78 0-203.67-14.1-0.06-28.3-0.08-42.4-0.07zm-942.55 10.01c-39.57 0-79.15 0.02-118.72 0.04-0.05 29.56-0.05 59.12 0 88.69 79.15 0.05 158.29 0.04 237.44 0 0.05-29.56 0.04-59.13 0-88.69-39.57-0.03-79.15-0.04-118.72-0.04zm191.89 2.5c-16.45 0-32.9 0.03-49.34 0.04-0.12 32.88-0.04 65.77-0.02 98.67 32.88 0.12 65.77 0.04 98.62 0.02 0.2-32.88 0.1-65.78 0.1-98.67-16.5-0.06-32.92-0.07-49.36-0.06zm-453.14 9.99c-10.82 0.01-21.65 0.03-32.47 0.05-0.05 37.47-0.05 74.95 0 112.43 21.65 0.09 43.29 0.04 64.94 0.01 0.05-37.48 0.04-74.96 0-112.43-10.82-0.05-21.65-0.06-32.47-0.06zm-474.38 5c-16.45 0.01-32.9 0.03-49.35 0.05-0.0496 20.8-0.0496 41.61 0.0004 62.42 32.9 0.12 65.8 0.04 98.695 0.02 0.05-20.81 0.05-41.62 0-62.42-16.445-0.06-32.895-0.08-49.345-0.07zm561.24 2.5c-8.53 0-17.06 0.02-25.59 0.05-0.05 20.81-0.05 41.62 0 62.44 17.06 0.05 34.12 0.04 51.19 0 0.05-20.82 0.04-41.63 0-62.44-8.53-0.04-17.07-0.05-25.6-0.05zm-356.86 18.76c-20.4 0-40.8 0.02-61.21 0.04-0.14 24.55-0.04 49.11-0.02 73.67 40.8 0.11 81.61 0.05 122.42 0.02 0.14-24.56 0.02-49.12 0.02-73.67-20.4-0.06-40.81-0.07-61.21-0.06zm147.49 0c-24.58 0-49.15 0.02-73.72 0.04-0.05 29.13-0.05 58.27 0 87.42 49.15 0.1 98.29 0.05 147.44 0.02 0.05-29.15 0.04-58.28 0-87.42-24.57-0.06-49.14-0.07-73.72-0.06zm748.1 2.49c-9.3 0-18.7 0.02-28 0.05-0.2 42.9-0.1 85.79-0.1 128.69 18.7 0.05 37.5 0.04 56.2 0 0.1-42.9 0-85.79 0-128.69-9.3-0.04-18.7-0.05-28.1-0.05zm807.5 2.5c-8.5 0-17 0.02-25.6 0.05v62.44c17.1 0.05 34.1 0.04 51.2 0 0.1-20.82 0-41.63 0-62.44-8.5-0.04-17.1-0.05-25.6-0.05zm266.3 3.76c-19.4 0-38.8 0.02-58.1 0.04-0.1 52.88-0.1 105.77 0 158.67 38.7 0.11 77.4 0.04 116.2 0.02v-158.67c-19.4-0.06-38.8-0.07-58.1-0.06zm-140.6 3.75c-20.4 0-40.8 0.02-61.2 0.04-0.2 49.13-0.1 98.27-0.1 147.42 40.8 0.1 81.6 0.04 122.4 0.02 0.1-49.13 0.1-98.28 0.1-147.42-20.4-0.06-40.8-0.07-61.2-0.06zm-605.7 1.25c-27.7 0-55.4 0.02-83 0.04-0.2 67.88-0.1 135.78-0.1 203.67 55.4 0.1 110.8 0.05 166.2 0.02 0.1-67.88 0-135.78 0-203.67-27.7-0.06-55.4-0.07-83.1-0.06zm-240.6 4.99c-14.1 0.01-28.3 0.03-42.4 0.05-0.1 67.88-0.1 135.78-0.1 203.67 28.3 0.11 56.6 0.04 84.9 0.02 0.1-67.88 0.1-135.78 0.1-203.67-14.2-0.06-28.3-0.08-42.5-0.07zm-1191.3 31.26c-17.072 0.01-34.144 0.03-51.219 0.01v108.75c34.15-0.05 68.313 0.07 102.46-0.05 0.05-36.23 0.1-72.45-0.02-108.66-17.078-0.06-34.149-0.06-51.221-0.05zm681.9 18.74c-15.2 0.01-30.39 0.03-45.59 0.05-0.07 27.47-0.05 54.94 0 82.42 30.38 0.11 60.78 0.04 91.19 0.02 0.05-27.47 0.04-54.94 0-82.42-15.2-0.06-30.4-0.08-45.6-0.07zm113.14 0c-14.16 0.01-28.31 0.03-42.46 0.05-0.1 67.88-0.05 135.78-0.02 203.67 28.3 0.11 56.61 0.04 84.92 0.02 0.1-67.88 0.05-135.78 0.02-203.67-14.15-0.06-28.31-0.08-42.46-0.07zm779.94 0c-13.3 0.01-26.6 0.04-39.9 0.05-0.1 47.88-0.1 95.77 0 143.67 26.6 0.12 53.3 0.04 79.9 0.02 0.1-47.9 0.1-95.78 0-143.67-13.3-0.07-26.6-0.08-40-0.07zm-1005.6 0.01c-14.78 0-29.56 0.02-44.34 0.04-0.07 29.56-0.04 59.12 0 88.69 29.56 0.05 59.12 0.04 88.69 0 0.05-29.56 0.04-59.13 0-88.69-14.78-0.04-29.56-0.04-44.35-0.04zm347.5 6.24c-12.28 0.01-24.56 0.04-36.84 0.05-0.05 47.88-0.05 95.77 0 143.67 24.56 0.12 49.12 0.02 73.72 0.02v-143.67c-12.31-0.07-24.6-0.08-36.88-0.07zm-691.86 17.5c-14.15 0.01-28.3 0.03-42.46 0.05-0.1 67.88-0.05 135.78-0.02 203.62 28.3 0.2 56.61 0.1 84.92 0.1 0.1-67.91 0.05-135.81 0.02-203.7-14.15-0.06-28.31-0.08-42.46-0.07zm166.25 10.01c-36.65 0-73.3 0.02-109.96 0.04-0.11 55.81-0.04 111.62-0.02 167.44 73.3 0.05 146.61 0.04 219.92 0 0.11-55.81 0.04-111.63 0.02-167.44-36.65-0.03-73.31-0.04-109.96-0.04zm906.89 2.49c-8.6 0-17.1 0.02-25.6 0.05-0.1 38.31-0.1 76.62 0 114.94 17 0.05 34.1 0.04 51.2 0v-114.94c-8.6-0.04-17.1-0.05-25.6-0.05zm551.2 6.26c-33.5 0-67 0.02-100.6 0.04v62.44c67.1 0.05 134.1 0.04 201.2 0 0.1-20.82 0-41.63 0-62.44-33.5-0.03-67-0.04-100.6-0.04zm-1705 4.99c-8.53 0-17.06 0.02-25.59 0.05-0.05 20.81-0.05 41.62 0 62.44 17.06 0.05 34.12 0.04 51.19 0 0.05-20.82 0.04-41.63 0-62.44-8.53-0.04-17.06-0.05-25.6-0.05zm910.68 25.01c-20.4 0-40.8 0.02-61.2 0.04-0.2 24.55-0.1 49.11-0.1 73.67 40.8 0.1 81.6 0.04 122.4 0.02 0.2-24.56 0.1-49.12 0.1-73.67-20.4-0.06-40.8-0.07-61.2-0.06zm-506.92 26.25c-11.44 0-22.89 0.01-34.33 0.04-0.11 34.56-0.05 69.12-0.02 103.69 22.88 0.04 45.77 0.04 68.67 0 0.11-34.56 0.05-69.13 0.02-103.69-11.45-0.03-22.89-0.04-34.34-0.04zm109.38 1.25c-20.4 0-40.8 0.02-61.21 0.04-0.14 24.55-0.04 49.11-0.02 73.67 40.8 0.1 81.61 0.04 122.42 0.02 0.14-24.56 0.02-49.12 0.02-73.67-20.4-0.06-40.81-0.07-61.21-0.06zm-630.03 8.75c-26.242 0.01-52.486 0.02-78.73 0.01v88.75c52.488-0.04 104.97 0.06 157.45-0.05 0.09-29.55 0.09-59.11 0-88.66-26.24-0.05-52.48-0.06-78.72-0.05zm1720 3.75c-23.7 0-47.4 0.02-71.2 0.04v68.67c47.5 0.11 95 0.04 142.5 0.02v-68.67c-23.8-0.06-47.5-0.07-71.3-0.06zm121.3 3.74c-14.2 0.01-28.3 0.03-42.5 0.05-0.1 48.72 0 97.42 0 146.12 28.3 0.2 56.6 0.1 85 0.1v-146.2c-14.2-0.06-28.3-0.08-42.5-0.07zm176.9 1.26c-36.5 0-72.9 0.02-109.4 0.04-0.1 48.72 0 97.47 0 146.17 72.9 0.1 145.8 0.1 218.7 0 0.1-48.7 0-97.44 0-146.17-36.4-0.03-72.9-0.04-109.3-0.04zm161.2 9.99c-11 0-22 0.03-33.1 0.05-0.1 69.55 0 139.07 0 208.67 22.1 0.1 44.1 0 66.2 0 0.1-69.5 0-139.09 0-208.65-11-0.07-22-0.08-33.1-0.07zm-2061.2 2.5c-8.54 0-17.07 0.02-25.6 0.05-0.05 20.81-0.05 41.62 0 62.44 17.06 0.05 34.12 0.04 51.19 0 0.05-20.82 0.04-41.63 0-62.44-8.53-0.04-17.06-0.05-25.59-0.05zm780.62 27.5c-15.41 0.01-30.82 0.03-46.22 0.05-0.07 20.8-0.05 41.61 0 62.37 30.81 0.2 61.62 0.1 92.42 0.1 0.1-20.84 0.1-41.65 0-62.45-15.4-0.06-30.79-0.08-46.2-0.07zm470 1.26c-20.4 0-40.8 0.02-61.2 0.04-0.1 24.55 0 49.11 0 73.62 40.8 0.1 81.6 0.1 122.4 0.1 0.1-24.59 0-49.15 0-73.7-20.4-0.06-40.8-0.07-61.2-0.06zm145.6 1.25c-23.1 0-46.2 0.01-69.3 0.04-0.1 20.81-0.1 41.62 0 62.47h138.7v-62.47c-23.1-0.03-46.3-0.04-69.4-0.04zm97.5 12.47c-4.8 0.01-9.5 0.06-14.3 0.07-0.1 67.87 0 135.77 0 203.67 9.5 0.2 19.1 0 28.6 0 0.1-67.9 0.1-135.8 0.1-203.65-4.8-0.1-9.6-0.11-14.4-0.09zm-603.1 3.77c-14.1 0.01-28.3 0.03-42.4 0.05-0.1 67.92-0.1 135.72-0.1 203.62 28.3 0.2 56.6 0.1 84.9 0.1 0.1-67.9 0.1-135.8 0.1-203.7-14.2-0.06-28.3-0.08-42.5-0.07zm237.5 1.25c-15 0.01-30 0.03-44.9 0.05-0.2 42.87-0.1 85.77-0.1 128.67 30 0.1 60 0 89.9 0 0.1-42.9 0.1-85.8 0.1-128.66-15-0.05-30-0.06-45-0.06zm-118.1 1.26c-17.7 0-35.4 0.01-53.1 0.04-0.1 22.9-0.1 45.82 0 68.72h106.2v-68.72c-17.7-0.03-35.4-0.04-53.1-0.04zm-476.28 18.74c-12.28 0.01-24.56 0.04-36.84 0.05-0.05 47.87-0.05 95.77 0 143.67 24.56 0.1 49.12 0 73.69 0 0.04-47.9 0.04-95.8 0-143.65-12.28-0.07-24.56-0.08-36.85-0.07zm1105 1.25c-8.5 0-17 0.02-25.6 0.05v62.42c17.1 0.1 34.1 0.1 51.2 0 0.1-20.8 0.1-41.6 0-62.42-8.5-0.04-17.1-0.05-25.6-0.05zm-83.7 2.5c-8.6 0-17.1 0.02-25.6 0.05-0.1 20.82-0.1 41.62 0 62.42 17 0.1 34.1 0.1 51.2 0v-62.42c-8.6-0.04-17.1-0.05-25.6-0.05zm-1641.3 12.47c-8.53 0-17.063 0.1-25.595 0.1-0.05 20.8-0.05 41.6 0 62.4 17.065 0.1 34.125 0.1 51.195 0 0.05-20.8 0.04-41.6 0-62.4-8.53-0.1-17.06-0.1-25.6-0.1zm70 0c-11.86 0-23.73 0.1-35.59 0.1-0.05 20.8-0.05 41.6 0 62.4 23.72 0.1 47.46 0 71.19 0 0.05-20.8 0.05-41.6 0-62.4-11.86-0.1-23.73-0.1-35.6-0.1zm270 7.5c-8.53 0-17.06 0.1-25.59 0.1-0.05 20.8-0.05 41.6 0 62.4 17.06 0.1 34.12 0.1 51.19 0 0.05-20.8 0.04-41.6 0-62.4-8.53-0.1-17.06-0.1-25.6-0.1zm-78.74 0c-12.29 0-24.57 0.1-36.85 0.1-0.05 47.9-0.04 95.7 0 143.6 24.56 0.2 49.12 0.1 73.69 0.1 0.05-47.9 0.04-95.8 0-143.7-12.28-0.1-24.56-0.1-36.84-0.1zm215 0c-30.2 0-60.4 0.1-90.6 0.1-0.05 20.8-0.05 41.6 0 62.4 60.4 0.1 120.79 0.1 181.19 0 0.05-20.8 0.05-41.6 0-62.4-30.2 0-60.39-0.1-90.59-0.1zm326.25 3.8h-109.33c-0.12 37.1-0.05 74.1-0.02 111.2 72.88 0.1 145.77 0.1 218.62 0 0.2-37 0.1-74.1 0.1-111.2h-109.37zm-876.28 10h-36.85v207.5c24.575-0.1 49.138 0.1 73.713-0.1 0.062-69.1 0.074-138.2-0.014-207.4h-36.849zm1591.8 1.2c-10.4 0-20.8 0-31.2 0.1v143.7h62.5v-143.7c-10.4-0.1-20.8-0.1-31.3-0.1zm-215.6 7.5c-8.5 0-17 0.1-25.6 0.1v62.4c17.1 0.1 34.1 0.1 51.2 0 0.1-20.8 0.1-41.6 0-62.4-8.5-0.1-17-0.1-25.6-0.1zm121.3 1.3h-46.9c-0.1 57.1 0 114.1 0 171.2 31.3 0.1 62.5 0.1 93.7 0 0.1-57 0-114.1 0-171.2h-46.8zm-1255.6 6.2c-14.15 0-28.3 0.1-42.46 0.1-0.1 67.9-0.05 135.7-0.02 203.6 28.3 0.2 56.61 0.1 84.92 0.1 0.1-67.9 0.05-135.8 0.02-203.7-14.15-0.1-28.31-0.1-42.46-0.1zm905.64 13.8h-28.1c-0.1 64.6-0.1 129.1 0 193.7 18.7 0.1 37.4 0.1 56.2 0v-193.7h-28.1zm951.8 10h-69.9c-0.1 21.2-0.1 42.5 0 63.7 46.6 0.1 93.3 0 139.9 0 0.1-21.2 0-42.4 0-63.7h-70zm-127.4 12.5h-42.5c-0.1 67.9 0 135.8 0 203.7 28.3 0.1 56.6 0 84.9 0 0.1-67.9 0-135.8 0-203.6-14.1-0.1-28.3-0.1-42.4-0.1zm-178.2 0h-109.3c-0.1 29.6-0.1 59.1 0 88.7 72.9 0.1 145.8 0.1 218.7 0v-88.7h-109.4zm-1675.6 7.5h-61.219c-0.138 24.6-0.038 49.1-0.026 73.7 40.805 0.1 81.615 0 122.42 0 0.14-24.5 0.02-49.1 0.02-73.6-20.4-0.1-40.8-0.1-61.2-0.1zm500.61 7.5h-25.58c-0.14 24.6-0.04 49.1-0.02 73.7 17.05 0.1 34.11 0.1 51.17 0 0.14-24.6 0.02-49.1 0.02-73.7h-25.59zm-96.87 0h-61.21c-0.14 24.6-0.04 49.1-0.02 73.7 40.8 0.1 81.61 0 122.42 0 0.14-24.5 0.02-49.1 0.02-73.6-20.4-0.1-40.81-0.1-61.21-0.1zm-108.14 1.2c-8.53 0-17.06 0.1-25.59 0.1-0.05 20.8-0.05 41.6 0 62.4 17.06 0.1 34.12 0.1 51.19 0 0.05-20.8 0.04-41.6 0-62.4-8.53-0.1-17.06-0.1-25.6-0.1zm903.78 17.5c-39.8 0-79.6 0.1-119.3 0.1-0.2 24.5-0.1 49.1-0.1 73.7h238.7c0.1-24.6 0-49.2 0-73.7-39.8 0-79.5-0.1-119.3-0.1zm-372.53 21.3h-36.84c-0.05 47.9-0.05 95.8 0 143.7 24.56 0.1 49.12 0 73.67 0 0.1-47.9 0.1-95.8 0-143.6-12.3-0.1-24.55-0.1-36.83-0.1zm1259.4 11.2c-20.4 0-40.9 0-61.3 0.1 0 29.6 0 59.1 0.1 88.7 40.8 0.1 81.6 0 122.4 0v-88.7c-20.4 0-40.8-0.1-61.2-0.1zm-159.4 1.3h-15.6c-0.1 44.2-0.1 88.3 0 132.5h31.2v-132.5h-15.6zm-1281.3 1.2c-36.44 0-72.89 0.1-109.34 0.1-0.05 40-0.05 79.9 0 119.9 72.9 0.1 145.79 0.1 218.69 0 0.05-40 0.04-79.9 0-119.9-36.45 0-72.89-0.1-109.35-0.1zm-405.61 23.8h-61.21c-0.14 24.6-0.04 49.1-0.02 73.7 40.8 0.1 81.61 0 122.42 0 0.14-24.5 0.02-49.1 0.02-73.6-20.4-0.1-40.81-0.1-61.21-0.1zm-240 2.5h-61.209c-0.163 13.7-0.026 27.5-0.026 41.2 40.805 0.1 81.615 0 122.42 0 0.16-13.7 0.02-27.4 0.02-41.1-20.4-0.1-40.81-0.1-61.21-0.1zm1715.6 3.7c-6.9 0-13.7 0.1-20.6 0.1v143.6c13.7 0.2 27.5 0.1 41.2 0.1 0.1-47.9 0.1-95.8 0-143.7-6.9-0.1-13.7-0.1-20.6-0.1zm56.3 0c-6.9 0-13.8 0.1-20.6 0.1-0.1 47.9-0.1 95.7 0 143.6 13.7 0.2 27.4 0.1 41.2 0.1v-143.7c-6.9-0.1-13.8-0.1-20.6-0.1zm-839.4 7.5c-20.4 0-40.8 0.1-61.2 0.1-0.1 24.5 0 49.1 0 73.6 40.8 0.1 81.6 0.1 122.4 0.1 0.1-24.6 0-49.1 0-73.7-20.4-0.1-40.8-0.1-61.2-0.1zm-514.99 5c-32.07 0-64.14 0.1-96.21 0.1-0.14 24.5-0.04 49.1-0.02 73.6 64.13 0.2 128.27 0.1 192.42 0.1 0.14-24.6 0.02-49.1 0.02-73.7-32.06-0.1-64.14-0.1-96.21-0.1zm1145 7.5c-40.4 0-80.8 0.1-121.2 0.1-0.1 29.5-0.1 59.1 0 88.6 80.8 0.2 161.6 0.1 242.4 0.1 0.1-29.6 0.1-59.1 0-88.7-40.4-0.1-80.8-0.1-121.2-0.1zm-432.5 12.5c-16.6 0-33.3 0.1-49.9 0.1-0.1 67.9-0.1 135.8-0.1 203.7h99.9c0.1-67.9 0.1-135.8 0.1-203.7-16.7 0-33.3-0.1-50-0.1zm851.9 10c-8.6 0-17.1 0.1-25.6 0.1-0.1 69.5 0 139.1 0 208.7h51.2v-208.7c-8.6-0.1-17.1-0.1-25.6-0.1zm-705 0c-26.9 0-53.8 0.1-80.6 0.1-0.1 34.1-0.1 68.2 0 102.4 53.7 0.1 107.4 0 161.2 0v-102.4c-26.9-0.1-53.8-0.1-80.6-0.1zm122.5 1.3h-25.6c-0.1 32.9 0 65.8 0 98.7 17 0.1 34.1 0.1 51.1 0 0.2-32.9 0.1-65.8 0.1-98.7h-25.6zm-1493.5 20h-60.881v128.8c27.075-0.2 54.138 0.1 81.213-0.1 0.037-42.9 0.125-85.8-0.037-128.7h-20.295zm138.51 13.7c-36.03 0-72.06 0.1-108.09 0.1-0.162 16.2-0.025 32.4-0.025 48.6 72.055 0.1 144.12 0.1 216.18 0.1 0.15-16.3 0-32.5 0.01-48.7-36.02 0-72.05-0.1-108.08-0.1zm183.12 7.5c-20.4 0-40.8 0.1-61.21 0.1-0.11 68.3-0.05 136.6-0.02 204.9 40.8 0.1 81.61 0 122.42 0 0.11-68.3 0.05-136.6 0.02-204.9-20.4-0.1-40.81-0.1-61.21-0.1zm1858.8 3.8c-20.4 0-40.9 0-61.3 0.1 0 24.5-0.2 49.1 0.1 73.6 40.8 0.1 81.6 0 122.4 0.1v-73.8h-61.2zm-1102.5 5h-61.2c-0.2 47.1-0.1 94.1-0.1 141.2 40.8 0.1 81.6 0 122.4 0 0.1-47 0.1-94.1 0.1-141.1-20.4-0.1-40.8-0.1-61.2-0.1zm-645.67 8.7c-12.28 0-24.55 0.1-36.83 0.1-0.1 61.6-0.05 123.2-0.02 184.9 24.55 0.1 49.11 0 73.67 0 0.1-61.6 0.05-123.3 0.02-184.9-12.28-0.1-24.56-0.1-36.84-0.1zm517.47 5c-8.5 0-17.02 0.1-25.55 0.1-0.11 45-0.05 89.9-0.02 134.9 17.07 0.1 34.07 0.1 51.17 0 0.1-45 0-89.9 0-134.9-8.5-0.1-17-0.1-25.6-0.1zm-343.09 3.8h-122.46c-0.14 24.6-0.04 49.1-0.02 73.7 81.63 0.1 163.27 0.1 244.92 0 0.14-24.6 0.02-49.1 0.02-73.7h-122.46zm164.36 2.5h-25.59c-0.05 31.3-0.05 62.5 0 93.7 17.06 0.1 34.12 0.1 51.19 0 0.05-31.2 0.04-62.4 0-93.7h-25.6zm1158.7 5h-25.6v62.5h51.2c0.1-20.9 0-41.7 0-62.5h-25.6zm76.3 0h-25.6c-0.1 20.8-0.1 41.6 0 62.5h51.2v-62.5h-25.6zm-263.1 2.5h-32.5c-0.1 26.2 0 52.5 0 78.7 21.6 0.1 43.2 0 64.9 0 0.1-26.2 0-52.4 0-78.7h-32.4zm-131.3 0h-83.7c-0.1 26.7 0 53.3 0 79.9 55.8 0.2 111.6 0.1 167.4 0.1 0.1-26.7 0-53.3 0-79.9-27.9-0.1-55.8-0.1-83.7-0.1zm-754.99 22.5h-42.46c-0.1 67.9-0.05 135.8-0.02 203.7 28.3 0.1 56.61 0 84.92 0 0.1-67.9 0.05-135.8 0.02-203.6-14.15-0.1-28.31-0.1-42.46-0.1zm-649.39 1.2c-8.53 0-17.06 0-25.59 0.1-0.05 20.8-0.05 41.6 0 62.4 17.06 0.1 34.12 0.1 51.19 0 0.05-20.8 0.04-41.6 0-62.4-8.53-0.1-17.06-0.1-25.6-0.1zm-76.24 2.5c-12.28 0-24.56 0.1-36.84 0.1-0.09 46.6-0.04 93.2-0.01 139.9 24.56 0.1 49.12 0 73.68 0 0.08-46.6 0.04-93.3 0.01-139.9-12.28-0.1-24.56-0.1-36.84-0.1zm1710.6 10c-14.2 0-28.3 0-42.5 0.1-0.1 67.1 0 134.1 0 201.2h85c0-67.1 0.1-134.1-0.1-201.2-14.1 0-28.3-0.1-42.4-0.1zm-523.1 1.3h-31.9c-0.1 25.8 0 51.6 0 77.5h63.7c0.1-25.9 0-51.7 0-77.5h-31.8zm108.1 1.2c-20.4 0-40.8 0.1-61.2 0.1-0.1 31.2-0.1 62.4 0 93.6 40.8 0.1 81.6 0.1 122.4 0.1 0.1-31.3 0.1-62.5 0-93.7-20.4-0.1-40.8-0.1-61.2-0.1zm715.6 15c-5.2 0-10.4 0-15.5 0.1-0.2 24.5-0.1 49.1-0.1 73.7h31.2c0.1-24.6 0-49.2 0-73.7-5.2-0.1-10.4-0.1-15.6-0.1zm56.3 0c-4.8 0-9.6 0.1-14.3 0.1-0.1 55.4-0.2 110.8 0 166.2 19.1 0.1 38.2-0.1 57.4 0v-166.3c-14.4 0.1-28.7 0-43.1 0zm-2175.7 25c-14.153 0-28.307 0-42.457 0.1-0.1 52.9 0.001 105.8-0.037 158.7h85c-0.04-52.9 0.06-105.8-0.05-158.7-14.15 0-28.303-0.1-42.456-0.1zm491.88 0c-12.69 0-25.39 0.1-38.08 0.1-0.1 52.9-0.02 105.8-0.04 158.7h76.25c-0.04-52.9 0.06-105.8-0.05-158.7-12.69-0.1-25.39-0.1-38.08-0.1zm91.26 0c-12.29 0-24.57 0.1-36.85 0.1-0.05 47.9-0.04 95.7 0 143.6 24.56 0.2 49.12 0.1 73.69 0.1 0.05-47.9 0.04-95.8 0-143.7-12.28-0.1-24.56-0.1-36.84-0.1zm-655.03 11.3h-11.85v88.7c7.9-0.1 15.813 0.3 23.713 0 0.062-29.6 0.074-59.1-0.014-88.7h-11.849zm1760.6 2.5c-20.4 0-40.8 0-61.2 0.1-0.1 48.3 0 96.6-0.1 144.9h122.6c-0.1-48.3 0-96.6-0.1-144.9-20.4-0.1-40.8-0.1-61.2-0.1zm-146.9 2.5c-14.4 0-28.7 0-43.1 0.1-0.1 47.4 0 94.9 0 142.4h86.3c-0.1-47.5 0.1-95-0.1-142.5h-43.1zm418.1 2.5c-14.1 0-28.3 0-42.4 0.1-0.1 46.6 0 93.3-0.1 139.9h85c0-46.7 0.1-93.3 0-140h-42.5zm-71.2 2.4c-4.6 0-9.2 0-13.7 0.2-0.1 45.8 0 91.6 0 137.4h27.4c0-45.8 0.2-91.7 0-137.5-4.6 0-9.2-0.1-13.7-0.1zm-1703.1 6.3c-8.54 0-17.07 0-25.6 0.1-0.05 20.8-0.05 41.6 0 62.4 17.06 0.1 34.12 0.1 51.19 0 0.05-20.8 0.04-41.6 0-62.4-8.53-0.1-17.06-0.1-25.59-0.1zm520.6 0c-20.4 0-40.8 0-61.19 0.1-0.1 43.7 0 87.5-0.04 131.2h122.5c-0.07-43.7 0.13-87.5-0.07-131.2-20.4 0-40.8-0.1-61.2-0.1zm304.42 32.5c-36.5 0-72.9 0.1-109.37 0.1-0.07 29.5-0.05 59.1 0 88.7h218.67c0.1-29.6 0.1-59.2 0-88.7-36.4 0-72.9-0.1-109.3-0.1zm426.9 5c-15.9 0-31.7 0.1-47.5 0.1-0.1 30-0.1 59.9 0 89.9 31.6 0.1 63.3 0.1 94.9 0 0.1-30 0-59.9 0-89.9-15.8-0.1-31.6-0.1-47.4-0.1zm-175.7 0c-36.4 0-72.9 0.1-109.3 0.1-0.1 29.5-0.1 59.1 0 88.7h218.7v-88.7c-36.5 0-72.9-0.1-109.4-0.1zm821.3 1.3h-56.8c-0.2 24.6-0.1 49.1-0.1 73.7 37.9 0.1 75.8 0.1 113.7 0 0.1-24.6 0-49.1 0-73.7h-56.8zm-1838.2 46.2c-14.15 0-28.3 0-42.45 0.1-0.14 15.4 0.01 30.8-0.04 46.2h85c-0.06-15.4 0.11-30.8-0.05-46.2-14.15 0-28.3-0.1-42.46-0.1zm-123.12 0c-17.69 0-35.38 0.1-53.07 0.1-0.15 15.4 0 30.8-0.05 46.2h106.25c-0.06-15.4 0.11-30.8-0.05-46.2-17.69 0-35.38-0.1-53.08-0.1zm232.5 0c-15.6 0-31.21 0.1-46.82 0.1-0.16 15.4 0 30.8-0.05 46.2h93.75c-0.06-15.4 0.11-30.8-0.05-46.2-15.61 0-31.22-0.1-46.83-0.1zm-424.4 12.5h-13.725v33.8h27.5c-0.05-11.3 0.124-22.5-0.051-33.7-4.575-0.1-9.149-0.1-13.724-0.1zm2162.5 32.3c-25.3 0.1-50.4 0.4-75.4 1.5h201.7v-1.2c-42 0.5-84.2-0.3-126.3-0.3z" transform="scale(.8)" fill="#ff944a"/>
</svg>
